<!DOCTYPE svg PUBLIC "-//W3C//DTD SVG 1.1//EN" "http://www.w3.org/Graphics/SVG/1.1/DTD/svg11.dtd">
<svg id="drawception" xmlns="http://www.w3.org/2000/svg" stroke-linejoin="round" stroke-linecap="round" data-time="215" width="600" height="500" viewBox="0 0 1200 1000">
<rect width="100%" height="100%" fill="#1d6ab2"/>
<path fill="none" stroke="#fef0f5" stroke-width="12" d="M 297 378 L 299 382 301 386 303 394 307 398 309 404 311 414 313 420 317 428 319 436 321 442 323 452 325 458 325 466 325 474 327 480 327 486 327 492 329 498 329 504 329 510 329 518 329 524 329 528 327 534 327 540 325 546 325 552 323 558 321 564 321 568 319 574 317 576 317 580 315 584 313 586 313 590 311 592 309 594 309 598 305 600 303 604 301 608 299 610 295 612 291 614 289 616 287 618 285 616 283 614 279 610 277 606 273 602 271 596 269 592 267 588 265 584 263 582 261 580 259 580 255 586 251 590 243 594 237 600 231 604 227 610 221 612 217 616 211 618 207 622 203 624 199 626 197 626 193 628 191 628 189 628 187 628 185 628 183 628 181 626 179 624 179 622 179 620 179 618 179 616 179 614 179 610 181 602 183 596 185 590 187 584 191 576 193 570 197 562 199 556 203 550 205 546 209 542 209 540 213 536 215 532 219 528 221 524 221 520 223 518 223 516 221 516 219 514 215 514 209 512 203 510 199 506 195 504 191 500 187 496 185 492 181 490 177 486 175 484 173 482 171 480 169 476 165 474 165 472 163 470 161 468 161 466 161 464 163 460 165 456 167 454 169 452 169 450 171 450 173 448 175 448 179 446 181 446 183 446 187 446 191 446 197 444 203 444 209 442 215 442 219 440 221 440 225 440 227 438 229 438 231 438 229 436 227 434 225 430 221 426 217 420 213 414 211 410 207 404 205 400 201 394 199 390 197 384 195 380 195 376 195 372 195 370 193 368 193 366 193 364 193 362 193 360 193 358 193 356 195 356 197 356 199 356 203 356 205 356 207 356 209 358 211 358 213 358 215 360 217 360 219 360 221 362 223 364 225 364 227 366 229 368 233 368 235 370 239 372 241 376 243 378 245 378 247 382 249 384 251 386 253 388 253 390 255 392 257 392 259 394 259 396 261 396 261 398 263 398 265 396 267 394 269 392 271 390 273 390 273 388 275 386 277 384 277 382 279 382 281 382 281 380 283 380 285 378 287 378 289 378 291 378 293 376 295 376 297 376 299 378 301 380 301 382 303 384 303 386 305 388 305 392 305 394 307 394 307 396 307 398 309 400 311 404 311 406 313 410 313 412 315 414 315 416 317 420 317 426 319 430 321 432 321 436 323 440 323 444 323 448 325 454 325 456 325 460 327 464 327 468 329 470 329 472 329 476 329 478 331 482 331 486 331 490 331 492 333 496 333 502 333 508 333 514 333 518 333 522 331 526 331 528 331 532 331 534 331 538 331 542 329 546 329 548 329 550 329 552 329 554 327 556 327 558 327 562 327 564 327 566 325 568 325 572 325 574 323 576 323 580 321 582 321 584 321 588 319 590 317 592 315 596 313 600 311 602 309 606 309 608 307 612 305 612 305 614 303 616 301 618 299 620 297 622 295 622 295 624 297 622 299 620 299 618 303 612 307 604 309 600 311 592 315 588 321 582 325 576 329 572 331 568 333 566 333 562 335 560 333 560 333 562 331 562 329 564 329 566 329 564 331 564 333 564 335 564 337 562 339 562 341 560 343 560 345 560 347 560 349 558 353 556 357 556 359 554 361 554 365 554 369 552 373 550 375 548 379 548 381 546 385 546 387 544 391 544 393 542 397 540 401 540 403 538 407 538 411 536 415 536 417 534 423 532 425 532 429 530 433 530 437 530 439 530 445 528 449 528 453 528 457 526 461 524 467 524 471 524 475 522 479 522 481 522 485 520 487 520 491 520 495 518 499 518 505 518 509 516 515 516 519 516 523 516 525 514 527 514 531 514 535 514 541 514 545 514 551 514 559 514 563 514 567 514 571 514 575 516 579 516 583 516 587 516 593 516 599 516 603 518 607 518 611 518 613 518 617 518 619 518 623 518 625 518 627 518 629 520 631 520 633 520 635 520 637 522 639 524 641 524 643 524 645 524 647 524 651 526 655 528 659 530 661 530 665 532 667 534 671 534 673 536 677 538 679 538 681 538 683 538 683 540 687 542 689 542 691 544 693 546 695 548 697 548 699 550 703 552 707 554 709 554 711 554 711 556 713 558 715 558 717 560 719 560 719 562 717 560 715 558 713 556 711 556 711 554 709 554 709 552 707 552 705 550 703 550 699 548 699 546 697 546 695 546 693 544 691 542 689 540 687 540 683 538 681 536 675 534 673 532 669 530 665 530 663 528 661 528 657 526 655 526 651 524 649 524 647 524 643 522 641 522 637 520 633 520 631 520 629 520 625 518 623 518 619 518 615 516 613 516 611 516 609 516 607 516 603 516 601 516 599 516 599 514 597 514 597 512 597 510 597 506 599 504 601 500 601 496 601 494 603 494 603 492 603 494 603 498 603 500 603 504 603 506 603 508 601 508 601 510 599 510 597 510 595 510 593 510 591 510 587 510 583 510 577 510 575 510 571 510 567 510 563 510 561 510 557 510 555 512 553 512 549 512 545 512 541 512 537 512 535 514 531 514 527 514 523 514 521 516 519 516 515 516 513 516 509 516 505 516 503 516 501 518 495 518 491 514 489 512 487 508 485 506 481 502 479 498 477 496 477 494 477 496 479 500 481 504 483 506 483 508 485 510 487 510 487 512 487 514 489 514 493 514 495 514 499 514 501 514 503 514 507 514 513 514 517 514 523 514 527 514 533 512 537 512 541 512 545 512 551 512 555 512 559 512 563 512 567 512 571 512 575 512 579 512 583 512 589 512 593 514 597 514 601 514 603 514 607 514 609 514 611 516 615 516 617 518 619 518 623 518 627 520 631 522 633 522 637 522 639 526 643 526 645 528 647 528 649 530 651 530 653 532 655 532 657 532 657 534 661 534 663 536 665 536 667 536 669 536 671 536 673 536 677 538 679 538 681 540 683 540 685 540 687 540 689 542 691 542 693 542 695 544 697 546 699 546 701 548 705 548 705 550 707 550 709 552 711 552 713 552 715 554 717 554 719 556 721 558 723 560 723 558 721 556 721 554 719 552 719 550 717 548 717 546 717 544 717 540 717 538 717 536 715 534 715 532 715 530 713 528 713 524 713 522 713 516 713 512 713 510 713 506 713 500 713 494 713 488 713 482 713 480 713 474 713 470 713 466 713 464 713 460 713 456 713 452 715 448 715 444 715 440 717 436 719 430 719 426 721 422 721 418 723 414 723 410 725 406 727 402 727 400 729 396 731 394 731 392 731 390 733 388 733 386 735 384 737 380 737 378 739 378 741 376 741 374 741 372 743 372 743 370 743 372 741 376 739 382 735 388 733 392 731 396 729 402 727 410 723 418 723 424 721 428 721 432 719 440 717 446 715 456 715 462 713 466 713 470 713 476 713 482 711 488 711 492 711 498 711 502 711 508 711 516 711 522 713 528 713 530 713 536 713 540 715 544 715 548 717 552 717 554 717 558 719 560 719 562 719 564 721 566 721 568 723 568 723 570 723 572 725 574 725 576 727 576 727 578 729 580 729 582 731 584 733 588 735 590 737 594 737 596 739 598 741 600 741 602 743 604 743 606 745 606 745 608 745 610 745 612 747 612 749 610 751 608 751 606 753 606 753 604 755 602 757 602 757 600 759 598 761 596 761 594 763 592 765 590 767 588 769 586 769 584 771 582 771 580 773 578 773 576 775 576 775 574 775 572 777 572 777 570 779 568 781 570 783 572 787 576 791 578 795 582 799 584 801 588 807 590 809 592 815 596 817 598 821 600 825 602 829 604 831 606 835 608 837 610 839 612 841 612 843 612 845 614 847 614 849 614 851 614 851 612 851 610 851 608 847 602 845 598 843 596 841 594 841 592 839 590 839 588 837 584 837 578 835 574 833 570 833 566 831 562 831 560 829 556 827 552 825 548 823 544 823 542 821 538 819 534 817 530 815 526 813 524 811 520 809 516 809 514 811 510 813 508 815 506 819 502 823 500 827 496 831 492 839 488 843 486 847 484 851 482 853 480 857 476 861 474 865 472 867 470 869 468 871 466 873 464 873 462 877 462 879 460 879 458 879 456 879 454 877 452 875 452 871 450 867 448 861 446 855 442 849 440 847 438 841 436 835 434 831 432 827 430 823 430 819 428 815 426 813 426 813 424 815 422 817 418 821 412 825 408 829 404 833 398 837 392 841 388 843 384 847 382 851 376 853 372 857 370 859 366 861 366 863 364 867 360 869 356 869 352 871 352 869 352 865 352 863 352 857 354 853 358 849 358 845 360 841 362 839 362 835 364 831 366 827 366 823 368 821 368 817 370 815 370 811 372 809 374 807 374 805 376 803 376 801 376 799 376 797 378 793 378 789 382 787 382 785 384 783 384 781 384 779 384 777 384 773 386 771 386 769 382 767 380 765 378 763 376 761 376 759 372 757 370 755 370 755 368 753 368 751 368 749 366 747 366 749 366 751 366 753 368 755 368 755 370 757 372 759 372 757 370 755 370 755 368 755 366 753 366 753 364 751 362 751 360 749 360 749 358 747 358 747 356 745 354 743 352 741 350 739 350 737 348 735 348 733 346 731 344 729 342 727 342 725 342 723 340 721 340 719 338 717 338 715 336 713 334 711 334 709 334 707 332 705 330 703 330 701 330 699 328 697 328 695 326 691 326 689 326 687 324 683 324 683 322 681 322 679 322 677 322 675 322 673 320 671 320 669 320 667 320 665 320 667 320 669 320 673 320 675 320 679 322 683 322 685 322 687 324 689 324 691 326 695 326 697 328 701 328 703 328 705 330 707 330 711 332 715 334 717 336 721 338 723 340 725 342 727 344 731 346 733 350 737 352 739 354 741 356 743 356 743 358 745 360 747 360 745 358 743 354 739 350 735 348 731 344 727 342 725 340 721 338 719 336 717 334 715 332 713 332 711 330 709 330 707 328 705 326 701 324 699 324 697 322 695 320 693 320 689 320 687 318 685 318 683 318 679 316 675 316 673 316 669 314 667 312 665 312 661 310 659 310 657 310 653 308 651 308 649 308 647 308 645 308 647 310 651 312 655 314 659 318 663 320 669 322 673 326 677 326 679 328 681 330 683 330 687 334 691 336 693 336 697 338 699 340 701 340 705 344 707 344 711 346 715 348 717 350 717 352 719 352 723 354 725 356 727 358 727 360 729 360 731 362 733 364 735 366 737 368 739 370 739 372 741 374 739 370 735 366 733 362 731 358 731 356 729 354 727 352 727 350 725 350 725 348 727 348 729 350 733 354 737 358 743 362 747 366 749 368 751 372 755 374 757 376 759 378 761 380 763 382 765 382 765 384 765 386 765 382 763 380 761 376 759 372 755 370 753 368 751 364 749 362 747 360 745 358 743 356 743 354 741 352 739 350 735 348 733 344 731 342 731 340 731 338 727 336 725 336 725 334 723 332 721 330 717 330 717 328 715 328 713 326 711 326 711 324 709 324 707 322 705 320 703 320 701 320 699 318 695 318 693 316 689 314 687 312 685 312 683 310 681 310 681 308 679 308 677 308 675 306 673 306 671 304 673 306 675 306 677 310 681 312 683 314 687 316 689 318 693 320 695 322 699 324 701 326 703 328 707 330 709 332 713 332 713 334 715 336 717 338 719 338 721 340 723 342 725 342 723 340 721 340 719 334 715 330 711 328 707 326 705 326 703 324 701 322 699 320 695 320 693 318 689 316 687 314 685 312 681 310 679 308 677 308 675 306 673 306 671 304 669 304 667 302 665 302 663 300 661 300 659 300 659 298 657 298 655 298 653 298 651 298 651 300 651 304 651 306 651 308 651 310 649 310 647 308 643 308 641 308 643 304 643 302 645 298 647 294 649 288 651 282 651 274 653 266 655 262 657 254 657 246 659 240 659 234 659 224 659 214 659 204 659 192 657 186 657 178 655 172 655 166 653 160 651 154 651 146 649 142 647 132 645 124 643 120 641 116 639 112 637 106 633 100 631 92 627 88 623 82 621 76 617 72 611 66 607 60 603 54 599 52 595 48 591 44 585 40 579 34 573 32 569 26 563 24 557 20 551 18 547 16 543 14 541 14 539 12 537 12 535 12 533 12 531 12 527 10 523 10 521 10 519 10 517 10 515 10 511 12 507 12 505 16 501 16 499 16 495 18 493 18 487 22 485 24 481 26 479 28 475 30 471 34 467 38 463 42 459 44 457 48 453 52 449 56 447 60 445 62 443 66 441 72 439 76 435 80 433 86 433 90 431 94 429 98 427 102 425 110 425 114 423 118 423 124 421 130 419 136 419 142 417 152 417 158 415 164 415 168 415 174 415 180 415 186 415 194 415 198 413 204 413 208 413 214 413 220 413 224 415 232 415 236 417 240 417 246 417 250 419 252 419 256 421 260 421 264 421 266 421 268 423 270 423 272 425 274 425 278 427 280 427 282 429 282 431 288 433 290 435 296 437 298 435 298 431 298 429 298 427 298 423 298 419 298 417 300 415 300 413 300 409 300 407 300 403 302 399 302 397 302 393 304 387 304 385 306 381 306 377 308 373 308 371 308 367 308 365 310 363 310 361 310 357 312 353 314 351 316 349 316 347 316 343 320 339 322 337 324 333 324 331 326 327 328 323 332 317 334 313 336 311 338 307 340 305 340 305 342 303 344 301 346 299 346 297 350 293 352 291 356 289 358 289 360 287 362 285 364 283 366 283 368 281 370 279 372 279 374 277 376 275 380 273 384 271 386 271 388 271 390 269 392 269 394 267 398 265 400 265 398 267 396 269 394 271 390 273 386 275 384 277 382 279 378 283 376 285 372 289 368 293 366 297 362 299 360 301 358 303 356 305 354 309 354 311 352 315 348 317 346 323 342 325 340 329 338 333 334 337 332 343 328 347 324 353 320 357 320 361 318 365 314 369 310 375 310 379 308 381 306 385 304 387 304 391 304 393 302 397 300 401 300 405 300 407 298 411 298 413 298 417 296 421 296 425 296 427 296 429 296 427 296 427 294 425 294 421 294 417 296 413 296 409 298 403 298 399 300 397 300 391 300 387 302 383 304 379 304 373 304 371 306 365 308 357 312 353 312 349 316 343 318 337 320 333 322 327 326 319 332 315 336 311 340 309 340 307 344 305 344 303 348 301 348 299 352 297 356 293 358 291 360 289 364 287 366 285 370 283 372 281 374 279 376 279 378 277 378 277 380 275 380 275 382 277 378 279 372 281 366 287 360 293 354 299 350 303 346 307 342 311 338 317 334 323 332 329 328 335 324 339 322 343 320 349 318 353 314 359 312 363 312 367 310 371 308 375 306 379 306 383 304 387 302 391 302 397 302 401 300 405 300 409 300 415 298 419 298 423 298 427 296 427 294 427 292 427 290 425 290 423 290 421 290 419 290 417 288 413 288 409 288 405 288 403 290 399 290 395 290 391 292 387 292 383 292 379 294 375 294 373 296 369 298 365 298 361 300 357 302 355 302 353 304 349 304 347 306 343 310 339 312 337 314 333 314 331 316 329 316 325 320 323 322 319 324 317 328 313 330 311 332 307 334 305 336 301 342 299 346 295 348 293 350 291 354 289 356 287 360 285 362 283 364 283 366 281 366 279 368 279 370 279 368 281 368 281 366 283 364 287 362 291 358 293 354 299 348 303 344 307 340 311 336 315 334 317 332 319 330 321 328 325 326 327 320 329 320 331 318 333 318 335 316 337 314 341 312 347 310 353 308 359 306 365 304 367 304 369 304 371 304 373 304 375 304 377 302 379 302 383 302 385 304 389 304 393 304 395 304 397 304 401 304 403 304 407 304 409 302 411 302 413 300 415 300 417 300 419 300 421 298 423 298 425 296 423 294 421 292 419 288 417 286 415 282 413 278 411 272 409 268 405 264 405 258 405 250 405 244 405 236 403 228 403 222 401 214 401 208 401 202 401 194 401 188 401 182 403 176 403 170 405 164 405 158 407 152 407 146 407 142 409 138 411 134 413 128 415 122 417 116 419 110 423 104 425 98 427 94 429 92 429 88 431 86 433 84 435 80 437 76 439 74 441 72 441 70 443 66 447 64 449 60 453 58 457 56 461 52 465 48 467 44 473 42 475 40 477 38 479 36 481 34 483 30 485 30 485 28 483 28 481 30 475 32 469 38 461 44 451 52 445 58 439 66 431 72 427 80 421 88 417 96 413 104 411 112 407 120 403 130 401 138 399 146 397 154 397 162 395 170 393 178 393 186 393 194 393 200 393 208 393 212 393 218 393 222 395 228 395 236 397 242 399 248 401 256 403 260 405 266 407 270 409 272 411 274 413 278 413 282 415 284 415 286 417 286 417 282 415 272 413 258 411 240 409 224 409 210 409 198 409 188 411 178 413 168 413 162 415 156 415 150 415 148 415 146 415 144 413 146 409 146 407 148 405 150 405 152 403 154 403 156 401 156 401 152 403 144 403 134 405 124 407 118 409 112 411 106 415 102 417 94 421 90 423 86 427 80 431 76 435 72 437 70 437 68 441 66 441 64 443 62 445 60 447 58 449 56 453 52 457 50 461 46 463 46 465 44 467 42 469 40 471 38 473 38 477 36 479 34 481 32 483 32 485 30 489 28 491 26 495 24 497 24 499 22 503 20 507 20 511 18 513 18 515 18 519 16 521 16 523 16 525 16 529 16 531 16 533 16 535 16 537 16 539 16 543 18 545 18 547 18 551 20 553 20 557 22 559 22 563 24 565 26 569 26 571 28 573 30 577 34 581 36 585 40 587 42 591 46 595 48 597 52 601 54 605 56 607 60 611 66 617 74 621 80 625 88 629 94 633 100 635 108 639 112 641 120 643 126 645 132 647 138 649 144 651 150 653 158 653 164 655 172 655 178 657 182 657 190 657 196 657 204 657 212 657 220 657 228 657 236 655 242 655 244 655 248 653 254 651 258 651 264 651 268 649 272 649 276 649 278 649 280 647 282 647 284 647 288 647 292 647 296 647 298 647 296 649 294 653 290 657 280 659 272 659 262 661 254 663 248 663 242 665 236 667 230 667 226 667 222 667 216 667 212 667 204 667 196 667 190 667 186 667 182 667 176 667 170 665 164 665 158 663 152 663 148 661 142 661 136 659 130 657 124 655 120 655 116 653 112 651 108 649 104 647 98 645 92 641 86 639 84 637 80 635 76 633 74 631 72 629 68 625 64 623 62 621 58 619 56 617 52 613 50 609 46 607 42 603 40 601 36 599 34 595 30 591 30 587 26 583 24 577 24 573 22 571 20 567 20 563 18 559 18 555 16 551 16 545 14 539 14 537 14 533 14 531 14 529 14 527 14 523 14 521 14 517 14 515 14 513 14 509 14 509 16 507 16 509 16 511 16 517 16 527 18 535 18 543 20 549 20 555 20 559 22 563 24 565 24 567 24 569 26 573 30 577 32 581 34 583 34 583 36 587 40 591 44 593 50 597 52 599 56 603 58 603 60 607 62 607 66 611 72 613 74 615 78 617 80 619 82 621 86 623 88 625 92 629 96 631 100 633 104 637 110 637 112 641 116 641 118 643 120 645 122 647 126 651 132 653 138 655 144 655 148 657 150 659 154 659 158 661 162 661 164 661 166 661 164 661 158 659 148 657 138 653 128 651 120 647 112 645 106 643 100 639 92 633 86 631 82 627 80 623 76 621 74 619 72 615 70 613 68 611 64 607 62 605 58 601 54 599 52 595 48 591 46 589 42 587 40 585 40 585 38 583 38 581 38 581 36 581 34 579 32 577 30 575 28 573 26 573 24 571 24 571 22 565 20 559 16 555 16 553 14 553 16 553 18 555 20 555 24 555 26 557 26 557 28 557 30 559 32 559 36 561 42 561 46 561 54 563 60 565 68 567 76 567 88 569 98 571 108 573 116 573 124 575 136 577 148 577 160 577 172 577 182 577 190 577 196 577 204 577 214 577 224 577 232 577 240 577 244 577 250 577 256 577 258 577 260 577 256 577 248 577 240 577 230 577 220 577 210 577 198 575 188 575 178 575 170 575 164 575 156 573 148 573 138 573 128 571 120 569 116 569 112 567 104 567 98 567 92 567 86 565 80 565 74 563 68 563 64 563 62 561 58 561 52 559 48 559 44 559 42 559 40 557 38 557 36 555 32 555 30 553 30 553 28 551 24 549 24 547 24 545 22 541 22 539 22 537 20 531 18 529 18 527 18 523 18 519 18 515 18 511 18 505 18 501 20 497 20 493 22 489 24 487 24 485 26 483 28 481 28 481 34 483 44 485 54 487 62 489 70 491 80 493 92 493 104 495 116 495 124 495 134 495 142 497 152 497 166 497 176 497 186 497 194 497 200 497 208 497 216 497 220 495 226 495 230 495 236 495 240 495 246 495 250 495 246 495 242 495 234 495 226 495 216 495 206 495 194 495 182 497 172 497 162 497 152 497 144 497 136 499 126 499 120 499 114 499 108 499 102 499 98 499 92 497 88 497 82 497 76 495 72 495 68 493 64 493 62 493 58 493 56 493 54 491 52 491 48 491 46 491 44 491 40 491 38 489 38 489 36 489 34 487 34 485 34 481 36 477 38 473 40 471 40 469 42 465 44 461 46 457 50 453 52 451 54 449 58 445 60 441 66 437 72 435 76 431 80 431 82 429 86 427 88 427 86 429 84 433 78 437 72 441 68 443 66 447 62 451 56 457 50 459 48 461 44 463 44 465 42 467 40 469 38 471 36 473 34 475 34 479 30 481 30 485 28 487 26 489 26 493 24 497 24 499 22 503 20 505 20 509 20 511 20 515 20 519 18 523 18 527 18 531 18 535 18 537 20 539 20 543 22 547 22 551 24 555 24 557 24 559 26 561 26 565 28 569 30 571 32 575 34 577 36 579 36 581 38 583 38 585 38 587 40 589 42 591 42 593 44 595 44 595 40 595 38 593 36 591 34 589 34 585 32 583 30 583 28 581 26 577 24 575 24 573 22 571 22 567 20 563 18 561 18 557 16 555 14 551 14 549 14 545 12 543 12 537 12 535 10 531 10 529 10 525 10 523 10 521 10 519 10 515 12 511 12 509 12 507 12 505 14 503 16 497 18 495 20 491 22 489 22 487 24 485 24 481 26 479 30 475 30 473 32 471 34 469 34 467 36 463 40 461 42 459 44 455 46 453 48 451 50 447 54 445 58 443 58 439 64 437 68 435 70 433 72 431 74 431 76 429 76 429 78 429 76 429 74 431 70 431 68 435 64 437 58 441 52 447 48 451 42 457 40 461 36 465 32 467 30 469 28 473 26 475 24 477 24 479 24 483 22 487 22 491 20 495 18 499 14 501 14 503 14 501 14 497 16 489 20 481 24 475 30 471 32 467 34 465 38 461 40 459 42 455 46 453 48 451 50 449 52 447 54 445 56 445 58 443 60 441 60 439 64 437 66 435 70 433 70 431 74 429 78 427 82 423 84 421 90 421 92 421 96 419 100 417 104 415 108 415 114 413 118 411 126 409 132 407 138 407 144 405 148 405 154 403 158 403 162 403 166 403 170 403 176 403 184 403 192 403 198 403 202 403 204 405 206 405 208 405 210 407 214 407 216 407 218 407 224 409 228 411 234 411 236 413 238 413 240 413 244 413 246 413 248 415 250 415 252 415 254 417 256 417 260 419 264 419 266 419 268 419 270 421 272 421 276 421 280 421 282 421 284 421 286 419 288 415 290 409 294 407 296 405 296 403 296 399 298 395 300 389 302 383 304 381 306 377 306 373 308 369 308 367 308 365 308 359 310 355 312 347 314 341 316 337 318 333 320 331 320 327 322 325 324 323 326 321 328 317 332 313 336 309 340 307 342 305 344 303 346 299 348 299 352 297 354 295 354 295 356 293 358 291 362 289 364 289 366 289 368 291 370 291 372 291 374 293 376 295 376 297 380 297 384 299 386 301 390 303 392 303 394 305 398 305 402 307 404 307 406 309 408 311 410 311 412 311 416 313 420 315 424 315 428 317 430 319 436 319 440 321 444 321 452 323 456 323 462 325 466 325 468 325 472 325 476 325 478 325 482 325 486 325 490 325 494 325 498 325 502 325 504 325 508 325 512 323 514 323 518 323 522 323 526 323 530 321 536 321 542 319 548 319 552 317 556 317 560 315 564 315 566 313 570 313 572 313 574 311 578 311 580 309 586 309 590 307 592 305 596 305 598 305 600 303 600 303 602 301 604 301 606 299 608 297 610 297 612 295 612 295 614 295 616 293 616 293 618 293 620 293 622 293 624 293 628 293 632 293 634 291 634 291 636 293 638 295 638 295 640 297 640 297 636 297 630 297 626 297 624 295 622 295 620 295 616 295 614 295 612 297 612 297 614 299 616 299 618 299 620 299 622 299 624 299 626 299 624 297 624 297 622 297 620 297 622 297 624 297 626 299 628 301 630 303 632 305 632 307 634 309 636 311 638 313 638 313 640 317 642 319 642 321 644 323 644 325 646 327 648 331 650 333 652 335 654 339 656 341 658 343 660 347 662 351 664 353 664 355 666 359 666 363 666 367 668 371 668 375 668 379 670 383 670 387 672 389 672 391 672 391 674 393 674 397 674 399 674 397 674 397 672 395 672 393 672 391 670 389 668 385 668 383 666 379 664 375 662 371 660 369 658 367 656 365 656 361 654 359 654 357 652 355 652 353 650 351 650 349 650 347 648 345 646 343 644 341 644 339 644 337 642 335 642 333 640 329 638 327 636 323 634 321 632 319 630 315 628 313 628 311 626 307 624 305 620 303 618 303 616 303 614 303 612 301 612 301 614 303 618 305 620 307 624 309 628 313 630 317 634 319 636 323 638 325 642 327 644 329 648 333 650 337 654 341 656 347 658 349 658 353 658 355 660 359 662 361 664 365 664 369 664 373 664 375 666 379 666 383 666 387 668 393 668 397 670 399 670 401 670 405 670 409 670 411 670 415 670 417 670 419 670 421 670 425 670 427 670 423 670 421 670 415 670 411 670 405 668 399 668 393 666 387 664 381 664 379 662 377 662 373 660 367 658 361 654 355 652 349 650 345 646 341 644 339 642 335 640 331 638 327 636 323 634 319 634 319 632 317 632 315 630 311 628 309 626 307 626 307 624 305 624 303 624 301 624 297 622 297 624 297 628 297 630 297 632 295 636 293 642 293 646 291 648 289 650 289 654 287 658 287 660 285 664 285 666 283 666 283 668 281 672 281 674 281 676 281 678 281 680 281 682 279 686 277 690 277 692 277 694 275 698 275 700 273 702 273 704 273 706 273 708 273 710 271 710 271 712 271 714 271 716 271 718 271 720 271 722 271 724 269 726 269 728 269 730 269 732 269 734 269 736 269 738 269 742 269 744 269 746 269 748 269 752 269 754 269 756 269 758 269 762 271 766 271 768 271 770 273 772 273 774 275 776 275 780 277 780 277 782 279 784 279 786 281 788 281 790 281 792 283 794 285 796 285 798 287 800 289 800 289 804 291 806 293 808 293 810 295 812 297 814 299 816 301 816 301 818 303 820 303 822 305 822 305 824 307 824 307 826 309 826 311 828 313 830 315 830 317 832 319 834 321 834 323 836 325 836 327 838 329 838 331 838 333 838 335 840 337 840 339 842 341 842 343 844 347 844 351 846 353 846 355 846 357 846 359 846 363 848 365 848 367 848 371 848 375 848 379 850 383 850 387 850 391 850 395 850 403 850 407 850 413 850 417 850 421 848 427 846 435 844 439 844 443 842 449 840 453 840 459 840 461 836 465 836 469 834 475 830 477 826 483 820 485 818 487 818 491 814 495 810 499 806 501 804 503 802 505 800 507 794 511 790 513 786 515 782 519 778 521 774 521 772 523 766 523 760 525 754 527 750 527 746 527 742 527 740 527 736 529 732 529 726 529 724 529 720 529 716 529 714 529 712 529 710 529 708 529 706 529 702 529 698 529 696 529 694 529 692 529 688 527 686 527 684 527 682 527 680 527 678 527 674 527 672 525 672 523 674 519 676 517 678 513 678 511 678 507 678 503 678 499 678 497 678 495 680 499 680 503 680 507 680 509 680 511 680 515 680 519 678 523 678 527 676 531 676 535 674 539 674 545 674 549 672 557 672 563 670 569 670 575 668 579 666 585 666 593 664 599 662 605 662 613 658 619 656 625 654 631 652 639 650 645 646 651 644 653 642 657 642 659 640 665 638 671 634 677 630 683 628 687 624 691 622 693 622 695 618 697 616 701 616 705 614 707 612 709 612 709 610 709 612 711 612 713 614 717 614 721 614 725 614 729 612 737 612 743 608 747 608 747 606 749 604 751 600 753 594 753 592 749 594 747 598 743 602 741 604 739 604 735 606 731 608 727 610 725 612 723 614 721 614 717 618 713 618 709 620 703 622 697 626 693 626 687 628 683 630 679 632 675 634 669 636 663 638 659 640 655 642 651 644 649 644 645 644 641 646 635 648 631 648 625 650 621 652 617 654 609 656 605 658 601 658 597 658 593 660 589 662 583 662 577 664 569 666 565 666 561 666 555 666 547 666 539 668 531 668 525 670 521 670 517 670 515 670 511 670 509 670 507 670 505 670 503 670 505 670 507 670 511 670 519 670 527 668 541 668 553 666 569 662 583 658 599 656 613 652 625 648 635 646 643 642 653 638 661 636 671 632 679 630 685 626 691 622 697 620 701 618 703 616 707 614 711 612 713 610 717 608 719 608 719 606 721 606 723 604 725 604 729 602 729 600 731 600 731 598 729 594 727 588 727 582 723 574 723 568 721 564 719 560 717 554 717 550 715 548 715 544 715 540 715 536 715 532 715 530 715 528 713 524 713 518 713 514 713 510 713 506 715 502 715 496 715 492 715 484 715 478 715 470 717 462 717 458 717 456 717 452 717 448 717 446 717 442 717 440 719 438 719 436 719 432 719 428 721 426 721 424 721 422 721 420 719 420 717 418 713 418 709 416 705 414 703 412 701 412 697 410 693 408 689 406 685 406 681 404 675 400 673 398 671 396 667 394 665 392 661 388 659 382 657 380 655 376 653 372 653 368 651 366 651 364 651 362 649 362 647 364 647 366 645 370 641 372 641 374 639 376 637 380 637 382 635 386 633 390 631 392 629 396 627 402 627 406 625 408 625 412 625 416 623 422 623 426 623 430 623 436 623 440 623 444 621 448 621 450 621 452 621 454 621 458 621 462 621 464 623 464 623 466 623 468 625 472 625 474 627 478 629 480 631 482 631 484 633 486 633 488 635 490 637 490 639 492 639 494 641 496 643 496 645 498 647 498 649 498 651 500 653 500 655 500 657 500 659 500 661 500 663 500 665 500 669 500 669 498 671 498 673 498 675 496 677 494 681 492 683 490 685 486 687 482 691 476 693 472 693 468 693 462 693 458 695 452 695 446 695 444 697 442 697 440 697 438 697 436 697 434 697 430 697 428 697 426 697 422 697 418 697 414 697 412 695 412 695 410 695 408 693 406 693 410 693 412 693 414 693 416 693 418 693 420 693 422 693 426 691 426 691 428 691 430 689 432 687 432 685 434 683 436 681 436 679 436 677 438 675 438 675 440 673 440 669 440 667 440 665 440 663 440 661 440 659 438 657 438 655 436 655 434 653 432 651 430 651 428 649 426 649 424 647 424 647 420 647 418 647 416 645 414 645 410 645 408 645 406 645 404 645 402 645 400 645 398 645 396 645 392 645 388 645 384 647 382 647 378 649 376 649 374 649 372 649 374 649 380 649 384 649 390 649 394 649 400 649 406 651 410 651 412 651 418 653 418 655 418 657 420 659 422 659 424 661 424 663 424 665 424 667 426 669 426 671 426 673 424 675 420 677 418 677 416 679 416 679 414 679 412 679 410 679 408 677 406 675 404 673 402 669 400 667 400 665 398 663 398 661 398 659 398 657 398 655 400 653 402 653 404 653 408 653 412 655 414 657 416 657 418 659 420 663 424 667 428 669 428 671 428 673 428 677 428 681 426 683 422 685 420 685 416 685 412 683 406 679 402 677 400 675 398 673 398 671 398 669 396 665 396 659 400 655 404 651 410 651 414 651 416 651 418 653 422 655 424 659 428 663 428 671 430 677 432 679 432 683 430 685 428 685 424 685 422 683 416 681 408 677 402 675 400 673 398 671 398 669 398 665 400 661 404 659 406 657 410 659 414 659 418 663 420 665 420 667 420 673 414 677 408 679 402 679 400 677 400 675 398 671 398 671 400 671 402 669 406 669 408 669 412 669 410 669 408 667 406 665 404 663 404 663 406 663 408 665 414 667 416 669 416 673 414 675 412 677 410 679 410 681 410 683 410 685 412 687 414 689 416 691 416 691 418 693 420 693 424 693 428 693 432 693 436 693 438 693 442 693 446 693 448 693 452 693 454 693 456 693 460 693 462 693 466 693 468 693 470 693 472 691 474 691 476 691 480 689 482 689 484 687 484 687 486 685 486 683 488 679 490 677 492 675 492 673 492 669 494 667 494 667 496 665 494 665 492 663 488 663 484 661 480 661 476 659 476 659 474 657 474 655 472 653 470 651 468 649 468 645 466 639 466 637 466 635 466 633 466 633 468 633 470 633 472 633 474 635 478 635 482 637 484 639 488 641 490 645 492 649 496 653 496 655 498 657 498 661 492 663 486 663 482 661 478 659 476 657 474 655 474 653 472 651 472 649 472 647 470 645 470 643 470 641 470 639 470 639 472 637 476 637 480 637 482 639 484 641 486 647 486 651 488 653 488 655 488 653 486 651 480 649 476 647 474 645 474 643 472 641 472 643 476 647 480 653 486 655 486 657 486 659 486 661 486 663 486 667 486 669 486 671 486 673 486 677 488 679 488 683 488 685 486 687 484 687 482 691 478 691 474 693 472 693 468 693 464 693 462 693 460 693 458 693 454 693 452 693 450 693 446 693 442 693 438 693 436 693 434 693 432 693 428 693 424 693 422 693 420 693 418 693 416 693 414 693 412 693 410 693 408 693 410 693 412 695 414 695 416 697 418 699 418 701 420 703 420 707 420 707 422 709 422 711 422 713 422 715 420 717 416 719 414 719 410 721 408 723 400 725 396 727 392 729 386 731 384 731 382 733 382 735 378 737 374 737 372 739 368 739 366 741 362 741 360 743 358 743 356 741 354 739 352 737 350 731 346 725 344 721 340 717 336 711 332 705 330 699 326 695 324 691 320 687 318 685 318 681 316 679 314 677 312 675 308 671 308 669 308 665 304 661 304 657 304 655 302 651 300 651 298 653 294 653 292 653 286 655 280 657 270 657 262 659 258 659 254 661 250 661 248 661 244 661 240 661 238 663 234 663 230 663 228 663 224 663 220 663 212 663 208 663 204 663 200 663 196 663 194 663 190 663 186 663 182 663 178 663 174 661 168 661 164 659 158 659 152 657 146 657 142 657 138 655 136 655 134 653 130 653 126 651 122 649 116 649 114 647 110 645 102 643 96 641 90 637 84 637 82 635 78 633 78 633 76 633 74 631 70 629 68 627 66 625 64 623 60 621 58 617 54 615 48 609 44 605 40 603 36 601 36 599 32 597 32 595 32 593 30 591 30 587 28 585 28 581 28 579 26 575 24 573 24 571 24 569 22 567 22 563 20 561 20 557 18 555 16 553 16 549 16 545 16 541 16 539 14 537 14 533 14 529 14 525 14 521 16 519 18 515 18 511 18 509 20 507 22 503 22 501 22 497 24 495 24 493 26 489 28 485 30 483 30 479 32 477 34 473 36 471 38 465 40 463 44 459 44 457 46 453 50 449 54 443 58 441 62 437 68 433 72 429 76 427 78 427 82 425 84 423 90 419 94 417 100 415 104 415 110 413 116 411 120 411 124 411 128 411 132 409 136 409 140 407 146 407 150 405 158 405 164 405 168 405 174 405 178 405 184 405 190 405 194 405 198 405 204 405 210 405 216 405 222 405 228 405 232 405 234 405 240 407 244 407 252 407 258 407 262 407 266 409 268 409 270 409 272 409 274 409 276 411 278 411 280 411 282 411 286 409 286 407 288 405 288 401 288 399 290 395 292 393 292 391 294 389 294 385 294 383 296 381 296 379 298 377 298 375 300 371 300 369 302 367 304 365 304 363 306 359 308 355 310 349 314 345 316 339 320 335 322 329 326 325 330 321 334 317 338 317 340 315 340 315 342 313 344 313 348 311 350 311 352 311 354 309 354 307 356 307 358 305 362 303 364 301 366 299 368 299 370 297 372 295 374 295 376 295 378 297 380 299 380 299 384 301 384 303 386 305 390 305 392 305 394 307 398 307 400 309 400 309 402 309 404 309 408 311 410 311 412 311 414 311 416 311 418 313 420 313 422 313 424 315 426 315 428 317 428 319 428 321 428 323 428 325 428 329 426 331 426 333 426 337 424 339 422 343 422 345 420 347 418 349 418 353 416 357 412 361 410 363 406 365 406 365 404 367 404 369 400 371 398 375 394 375 392 377 390 379 386 381 382 383 378 385 374 387 370 389 366 391 364 391 360 393 360 395 366 397 368 397 370 399 374 399 380 401 384 403 388 403 394 405 398 405 402 407 406 407 410 407 414 407 418 407 424 407 428 407 432 407 438 407 444 405 450 403 456 403 464 401 468 401 470 401 474 399 476 399 478 397 480 397 482 397 484 395 488 393 490 391 492 391 494 389 496 387 498 387 500 385 500 383 502 381 504 379 504 377 504 375 504 373 504 371 504 369 504 369 502 367 500 365 500 365 498 363 496 361 496 359 492 359 490 357 488 357 486 355 486 355 484 353 480 351 478 351 476 351 474 349 472 349 470 349 468 347 464 347 462 345 460 345 458 345 456 345 452 345 450 345 448 343 446 343 444 343 442 343 440 343 438 343 436 345 434 345 430 345 428 345 426 345 428 343 432 343 436 343 438 343 440 343 444 343 448 343 452 343 454 343 456 343 460 343 462 343 464 343 466 345 470 345 472 345 476 347 476 347 478 347 480 349 480 351 484 353 486 353 488 355 490 357 490 359 490 361 494 363 496 365 498 367 498 367 500 369 502 371 502 373 502 375 502 377 502 379 502 383 502 385 500 389 500 391 498 393 498 395 498 397 496 399 496 401 494 401 492 403 490 403 488 403 486 405 484 405 482 405 480 405 476 407 472 407 468 407 466 407 464 409 462 409 458 409 456 409 454 409 452 409 450 409 448 411 444 411 442 411 438 411 436 411 434 411 432 411 428 411 426 411 424 411 420 411 418 411 416 411 414 409 414 409 412 409 410 409 408 409 404 409 400 409 398 409 396 409 394 407 392 407 390 407 388 407 384 405 384 405 380 405 376 403 374 403 370 401 368 401 366 401 368 401 374 403 378 405 382 405 386 407 390 407 396 409 402 409 408 409 414 409 418 411 422 411 426 411 430 411 434 411 438 411 440 411 444 409 446 409 450 409 452 409 454 409 458 409 462 409 464 407 468 407 472 407 474 407 476 407 480 405 482 405 484 405 486 405 488 403 492 401 494 401 496 399 498 397 500 395 502 393 504 391 504 389 504 387 506 385 506 383 506 381 506 383 506 385 506 387 504 389 504 391 504 393 502 395 502 397 500 399 500 401 498 401 496 403 494 403 492 403 490 405 488 405 486 405 484 405 482 405 480 407 476 407 474 407 470 407 468 407 466 407 464 407 462 403 462 401 462 397 464 395 466 393 468 391 468 389 468 387 472 385 474 381 476 379 478 377 480 377 482 375 484 375 486 375 488 375 490 375 492 375 494 375 496 377 496 381 494 385 492 389 488 393 484 397 478 401 470 401 462 403 458 403 456 403 458 395 462 389 470 385 476 383 482 383 484 381 486 383 486 385 486 389 484 393 478 397 474 399 468 401 464 403 460 403 456 405 454 405 452 405 450 405 446 405 444 407 440 407 436 407 432 407 428 407 424 409 420 409 416 409 412 409 408 409 406 409 402 407 400 407 398 405 396 405 394 405 392 403 392 403 390 403 388 401 388 401 384 401 382 399 380 399 376 399 374 397 372 397 376 397 382 397 386 397 390 397 394 397 398 395 400 395 404 393 406 393 410 393 412 391 414 391 418 391 422 389 424 389 426 387 428 385 432 385 434 383 436 383 438 381 438 379 438 377 440 375 440 373 440 371 440 369 440 367 440 365 440 363 440 361 440 359 438 357 438 355 436 353 434 351 428 351 426 349 422 349 418 347 418 347 416 345 414 347 414 347 416 349 418 349 420 351 422 353 424 355 426 357 430 359 432 363 434 365 438 367 438 369 438 371 440 373 440 375 442 377 442 379 442 383 440 385 440 389 438 391 434 393 432 397 430 399 428 399 424 403 420 403 416 405 412 405 406 405 400 405 394 405 388 405 384 405 382 403 382 401 382 399 384 393 388 391 396 389 402 387 408 385 414 383 418 379 424 379 426 377 426 373 424 367 424 365 422 363 422 365 420 367 416 371 410 375 404 379 398 383 396 387 392 389 386 391 382 393 378 393 374 395 374 393 376 391 386 387 398 383 408 381 414 379 416 377 420 375 422 373 424 373 426 371 428 369 430 367 432 369 434 371 434 375 432 377 430 379 428 381 426 381 422 381 416 381 414 381 412 379 412 377 412 373 414 371 416 367 416 363 416 359 418 353 420 351 420 347 420 347 422 345 422 343 422 339 422 335 422 331 422 329 424 327 424 325 424 321 424 321 426 321 430 323 434 323 440 323 446 323 450 325 454 327 458 327 460 327 462 329 466 329 470 331 474 331 476 331 478 333 480 333 484 333 486 333 488 333 494 333 498 333 502 333 506 331 510 331 512 331 516 331 520 329 522 327 526 327 528 327 530 327 532 327 534 327 536 327 538 327 546 327 550 327 554 327 558 325 562 323 568 323 574 321 578 321 580 319 584 319 586 319 588 319 590 317 592 317 594 315 596 315 598 315 600 313 602 313 604 311 608 311 610 309 614 307 616 307 618 305 620 303 622 305 622 307 622 309 622 309 624 311 624 315 626 319 628 321 628 325 630 327 632 329 634 331 636 335 638 337 640 339 642 341 642 345 642 347 642 349 642 349 644 351 646 355 646 357 648 359 650 361 650 363 650 365 652 367 654 371 656 373 658 377 658 379 660 385 662 387 664 391 664 393 666 397 666 401 666 405 668 407 668 411 668 415 668 417 668 419 668 417 668 413 668 407 668 403 668 399 666 395 666 389 662 383 660 375 660 369 658 365 658 363 656 361 656 357 654 351 652 349 652 347 650 343 650 339 648 337 648 333 646 329 642 325 640 323 640 321 638 319 636 317 636 315 634 315 632 313 632 311 630 309 628 309 624 307 624 305 624 305 622 303 624 301 630 299 632 297 636 295 638 293 640 291 644 291 646 289 648 287 650 287 654 285 656 285 662 283 664 283 666 281 670 279 672 277 676 277 680 275 684 273 686 273 690 273 696 271 702 269 710 267 718 265 722 265 724 265 728 265 732 265 734 265 738 263 746 263 750 263 756 265 760 265 766 267 770 269 774 271 778 273 782 275 784 277 786 279 788 281 792 283 794 287 796 289 798 291 800 293 802 293 806 297 810 299 814 303 816 307 820 311 822 315 824 317 826 323 830 327 834 333 836 339 836 345 838 349 838 353 840 357 842 361 842 367 844 371 844 375 844 379 844 383 844 389 844 393 844 399 844 403 844 409 844 415 844 423 842 429 840 435 840 437 838 441 838 445 836 447 834 453 834 457 832 461 830 465 826 469 824 473 822 475 820 479 820 483 818 485 816 489 814 493 812 495 810 499 806 503 802 507 798 511 790 513 788 515 784 517 780 521 776 523 772 525 768 525 764 527 762 527 758 529 754 529 750 531 746 531 742 531 740 531 736 533 732 533 728 533 724 533 720 533 714 533 710 533 708 533 704 533 700 533 696 533 694 533 688 531 684 531 680 531 678 531 676 531 682 529 686 529 688 529 690 529 692 529 696 529 702 529 710 527 716 527 720 527 724 525 728 525 732 525 734 525 738 523 742 523 746 523 750 521 752 521 754 521 756 521 758 521 760 519 764 519 766 519 768 517 768 517 770 517 772 517 774 517 778 517 780 515 784 513 786 513 788 511 790 511 794 509 798 507 800 509 800 513 796 515 794 517 794 517 796 517 800 517 806 515 810 513 816 513 822 511 826 509 832 509 836 507 842 505 844 503 848 503 850 499 856 499 860 497 862 497 868 495 870 493 872 491 876 489 878 487 882 485 882 485 886 483 886 481 890 479 892 477 892 475 894 473 894 473 896 471 896 469 896 467 896 465 896 463 896 463 894 461 894 459 892 455 892 455 890 453 888 451 886 449 882 447 882 447 878 445 876 443 872 441 870 439 866 439 864 437 860 435 856 435 854 433 852 433 850 431 848 431 846 431 848 433 850 437 856 439 864 441 870 441 874 443 876 443 880 445 880 445 882 447 882 449 880 453 876 455 872 457 868 459 864 461 858 465 852 465 848 465 846 463 854 461 860 459 866 455 872 451 878 451 884 449 886 449 888 449 886 451 886 453 886 455 886 457 886 459 886 461 884 463 884 467 884 469 882 473 882 475 878 479 872 481 868 485 864 487 862 487 858 489 854 489 852 491 850 491 848 491 850 489 856 485 860 483 866 479 872 475 878 473 882 471 884 473 884 475 882 477 882 479 880 483 876 485 874 487 870 491 868 493 866 495 864 497 860 499 856 501 854 505 850 507 846 509 840 509 836 511 832 513 826 513 824 515 822 517 818 517 816 517 814 517 812 517 810 519 808 519 806 519 804 519 802 519 800 519 798 519 796 519 794 519 788 519 786 519 784 519 782 519 780 519 778 519 776 519 778 517 782 515 784 513 788 513 790 511 792 509 794 507 796 505 798 503 800 501 802 497 804 495 806 493 808 489 810 483 814 479 816 475 818 471 822 467 824 463 826 461 828 459 830 457 830 453 832 451 832 447 834 445 836 443 836 439 838 437 838 431 838 429 838 425 840 421 840 419 842 415 842 413 842 411 842 407 842 405 842 403 842 399 844 397 844 395 844 393 844 387 844 383 844 381 842 379 842 377 842 373 840 371 840 367 838 363 838 359 836 355 834 353 834 349 832 345 832 341 830 337 828 333 826 329 824 327 822 323 820 319 818 315 816 313 814 311 814 307 812 305 808 301 806 299 804 295 802 293 800 289 796 287 794 283 790 281 788 277 784 275 782 273 780 273 778 271 778 271 780 273 784 273 788 273 792 273 796 271 798 271 804 269 810 269 816 269 820 269 824 269 828 269 836 269 840 269 844 269 850 269 856 271 860 271 864 273 868 273 870 275 872 277 874 277 878 279 878 281 882 283 886 285 888 287 890 289 892 289 894 291 894 293 894 295 896 297 896 299 896 301 896 303 896 307 896 309 896 313 896 317 894 319 892 323 890 325 886 329 884 331 878 335 874 339 870 341 864 343 860 347 856 349 852 351 850 351 846 353 846 353 844 351 846 347 850 343 856 341 862 337 866 335 868 333 872 331 874 329 876 327 880 325 882 323 884 323 886 321 886 319 888 317 890 313 890 309 892 303 894 299 896 297 896 295 896 293 896 291 896 289 894 287 892 285 886 283 884 283 880 281 876 281 872 279 868 279 862 277 860 277 856 275 854 275 846 273 840 271 834 271 828 269 820 269 814 271 808 271 804 271 802 271 800 271 804 271 812 271 820 271 828 271 834 271 844 273 850 275 856 275 860 277 864 279 868 281 872 283 874 283 876 283 878 285 880 287 882 287 884 287 886 289 886 289 888 291 888 293 886 293 884 295 882 297 876 299 870 301 864 303 858 303 852 303 850 301 858 299 866 297 872 295 878 293 882 293 884 293 886 295 886 297 886 297 888 299 888 301 888 303 888 305 888 309 886 311 886 313 886 317 882 319 878 321 874 323 872 325 870 325 866 327 860 327 856 329 852 329 850 329 856 327 862 325 868 325 872 325 876 323 878 323 880 323 882 325 880 327 880 327 878 331 874 333 870 337 866 337 862 339 858 341 854 343 850 345 846 347 842 347 840 347 838 343 836 341 836 337 836 333 834 329 834 327 832 323 832 319 832 317 830 313 828 311 826 309 824 307 822 305 822 303 820 299 816 297 816 295 814 293 812 289 808 287 802 285 798 285 796 283 796 283 794 281 792 279 792 279 788 277 788 277 786 275 784 275 782 273 782 271 778 269 774 267 772 267 770 267 768 265 768 265 766 265 764 263 762 263 760 263 758 261 758 261 756 261 754 261 752 261 748 261 744 261 742 261 740 263 738 263 736 265 732 267 728 267 726 267 724 267 722 267 720 265 716 265 712 263 710 261 706 261 702 259 700 257 696 257 692 255 686 253 684 253 680 251 678 251 674 249 672 247 670 245 666 243 662 241 660 239 656 237 652 237 650 235 650 235 646 233 646 233 644 231 642 231 640 229 638 229 636 227 634 225 632 225 630 225 628 223 628 221 628 219 626 217 626 215 626 213 626 211 626 209 626 207 626 205 626 203 626 201 626 197 626 195 626 193 626 191 626 189 624 187 624 185 622 185 620 183 620 183 618 183 616 183 610 183 606 183 604 183 602 183 598 183 594 185 592 185 590 185 588 185 586 185 584 187 582 187 580 187 576 187 574 185 572 181 568 179 560 173 556 167 550 163 544 157 536 147 526 131 510 115 496 103 484 95 474 89 470 85 466 81 464 77 460 75 458 71 454 69 454 65 450 61 448 59 446 57 446 55 446 53 444 49 444 47 442 43 440 41 440 39 440 37 438 35 438 31 440 27 440 23 444 17 448 11 454 3 462 -1 464 -5 470 -7 472 -11 478 -15 486 -17 488 -19 492 -23 500 -25 504 -27 510 -29 514 -29 520 -31 526 -31 532 -33 536 -33 540 -33 544 -35 548 -35 552 -35 554 -37 558 -37 564 -41 576 -45 584 -47 590 -49 596 -49 600 -51 608 -53 612 -55 618 -55 624 -57 634 -59 640 -59 646 -59 648 -59 652 -59 656 -59 660 -59 666 -59 672 -59 676 -59 678 -59 682 -57 684 -57 688 -55 690 -53 694 -51 696 -49 698 -45 702 -41 704 -37 708 -35 710 -31 716 -25 720 -21 726 -15 730 -9 732 -5 736 1 740 7 744 15 750 21 752 29 754 37 756 45 756 53 758 61 758 67 760 75 762 81 764 85 764 93 764 99 766 105 766 111 768 115 768 121 768 125 768 133 770 141 770 147 772 153 772 159 772 167 772 177 772 185 772 193 772 199 770 205 770 209 770 217 770 223 768 231 768 237 766 243 766 247 766 251 764 253 764 255 764 257 764 259 762 261 762 259 760 259 758 259 756 257 754 255 752 253 748 253 744 251 738 249 728 247 722 245 718 241 714 239 708 235 704 231 698 227 692 223 684 219 676 213 670 209 662 203 656 197 650 191 642 187 634 179 628 175 620 167 612 161 606 155 598 147 592 139 584 133 580 125 574 119 566 111 560 105 556 99 552 93 548 89 544 83 540 79 536 73 532 69 526 61 522 55 516 51 514 49 508 45 506 41 504 39 500 33 498 31 496 27 492 23 490 21 488 17 488 15 488 11 484 9 482 7 482 5 482 3 480 1 480 -1 478 -3 478 -3 480 -3 482 -5 486 -5 490 -7 494 -9 500 -9 508 -9 518 -9 528 -9 534 -9 544 -7 552 -5 560 -1 572 5 584 9 592 13 602 19 610 23 618 29 628 39 634 43 642 49 646 55 652 61 656 67 662 73 668 79 674 87 678 95 684 105 690 113 694 121 698 127 702 135 708 143 714 151 718 161 722 169 724 179 728 189 730 197 732 203 732 209 734 213 736 219 736 223 738 229 738 235 738 237 740 241 740 243 740 245 740 247 742 249 742 251 742 253 744 257 744 261 746 265 746 267 748 269 746 273 744 275 742 273 742 271 742 269 742 267 742 273 742 279 740 281 740 285 738 287 736 291 736 295 736 297 732 303 732 307 730 311 728 313 726 317 724 321 722 325 720 327 720 329 718 331 716 335 714 337 712 339 712 341 710 341 708 343 706 345 704 347 704 347 702 349 700 349 698 351 696 351 694 351 692 351 690 349 688 345 684 343 680 341 678 339 676 337 674 335 672 331 670 327 668 323 668 319 666 315 664 311 662 307 662 303 660 301 660 299 660 295 658 293 658 291 658 289 658 289 656 289 658 289 656 289 658 289 656 291 656 293 658 297 658 299 658 301 660 303 660 307 662 311 662 313 662 315 664 317 666 321 668 325 670 327 672 329 672 331 674 333 676 337 676 339 678 341 678 343 680 345 680 347 682 343 682 339 680 333 680 325 678 319 678 313 678 309 678 305 678 303 678 303 680 305 680 307 680 313 680 321 680 327 680 329 680 331 680 335 680 339 682 343 682 343 684 341 688 341 690 339 690 337 692 333 692 329 694 325 696 319 696 315 696 311 698 307 700 305 700 303 700 301 700 303 700 305 700 307 700 313 700 319 698 323 698 327 696 331 696 335 696 339 694 341 694 341 692 341 690 339 688 337 684 333 680 329 678 325 674 321 672 317 670 311 668 307 666 305 666 303 666 301 666 299 664 297 662 295 662 293 662 291 662 289 662 287 664 285 666 281 670 279 674 277 676 275 680 273 684 271 688 271 692 269 696 267 700 265 706 263 710 263 714 261 718 261 722 261 724 259 728 259 732 259 734 259 738 259 742 259 744 261 748 261 752 261 756 263 760 263 762 265 766 265 770 265 772 267 776 269 778 269 780 271 782 273 784 275 786 275 788 279 792 281 794 285 796 287 798 289 798 291 800 293 802 295 802 297 804 297 806 301 808 303 810 305 810 309 812 311 814 315 814 317 816 319 818 323 818 325 820 327 820 329 822 331 822 333 824 337 824 339 826 343 826 347 828 351 828 355 830 357 830 361 830 363 830 367 832 369 832 373 834 377 834 381 836 387 836 393 836 397 836 399 836 401 836 405 836 409 836 413 836 417 834 421 834 423 834 427 832 429 832 433 830 437 830 441 828 445 826 449 824 455 822 459 822 461 820 463 820 467 820 469 818 473 816 475 814 477 814 479 812 481 810 483 810 485 810 487 808 489 808 491 806 493 806 495 804 497 804 499 804 501 802 503 800 505 800 505 798 507 798 509 796 511 796 513 794 515 792 517 790 519 788 519 786 521 784 521 782 523 780 525 780 525 778 525 776 525 774 525 772 525 770 525 766 525 762 527 760 527 758 527 754 527 750 527 746 529 742 529 738 529 734 529 732 529 730 529 728 529 724 529 722 529 718 529 714 529 710 527 708 527 704 527 702 527 698 527 696 527 694 527 692 527 690 527 688 529 684 535 682 541 680 547 680 551 680 557 680 565 680 569 680 571 680 575 680 577 680 581 680 583 680 587 682 589 682 591 682 593 684 595 686 599 688 603 688 605 690 607 692 609 694 611 694 613 696 615 698 617 700 619 702 619 704 619 706 619 708 619 710 619 712 617 714 615 716 611 718 607 720 603 722 599 724 595 726 589 730 581 732 575 734 571 736 567 736 563 736 557 738 553 738 549 740 545 742 541 742 537 742 535 742 531 742 527 742 525 742 523 742 521 742 523 742 527 742 535 738 543 736 551 732 557 732 565 728 571 726 577 726 581 724 585 724 589 722 593 720 595 720 597 718 599 718 601 716 603 714 605 714 605 712 609 712 609 710 611 708 611 706 613 704 613 702 613 698 611 696 609 694 609 692 607 690 605 688 603 686 601 684 599 682 597 680 593 676 589 674 583 670 579 668 577 666 573 666 569 664 565 664 563 664 561 664 557 664 555 664 557 666 563 670 569 672 573 674 577 676 579 676 583 680 587 682 589 684 591 686 593 686 595 688 597 690 599 692 601 694 603 696 605 696 603 694 599 692 595 690 589 690 577 688 569 688 565 688 567 690 571 690 579 692 587 692 591 694 593 694 595 694 597 694 599 696 601 696 603 698 605 698 607 698 607 700 603 704 599 706 595 708 593 708 589 708 585 710 579 710 573 712 567 712 565 714 563 714 561 714 567 714 573 714 579 712 585 712 591 712 593 712 595 712 599 712 601 710 603 710 605 710 607 710 607 708 609 708 609 706 609 704 607 700 605 698 605 696 603 692 603 690 601 688 599 686 597 682 595 680 593 678 591 676 589 674 587 670 585 668 585 666 585 664 587 660 591 654 595 652 597 650 601 648 605 644 609 642 615 638 619 636 623 636 625 636 627 636 631 636 635 634 641 632 647 630 649 630 651 630 655 630 657 630 661 630 667 628 671 628 677 626 681 626 685 624 687 622 691 622 693 620 697 620 699 618 703 618 705 616 709 614 713 612 717 612 717 610 719 608 721 608 723 608 727 606 731 606 733 604 739 602 745 600 749 598 751 598 753 594 757 592 759 592 761 590 763 588 765 588 767 586 769 584 773 582 775 578 779 576 781 574 783 574 785 572 785 570 787 570 787 572 789 574 789 576 791 578 793 582 795 586 797 588 799 592 803 594 807 598 811 600 815 604 821 606 823 608 827 610 829 612 831 614 833 614 835 614 837 616 839 618 841 620 843 620 843 622 843 620 841 618 833 614 827 608 819 604 813 600 807 596 805 596 801 594 799 592 795 590 793 588 791 588 789 586 787 586 787 584 787 582 785 582 783 580 781 578 781 576 779 576 781 578 783 582 789 588 795 592 801 596 805 602 809 606 813 608 817 610 821 612 825 612 825 614 827 614 829 616 833 616 837 618 839 620 843 620 849 620 851 620 855 620 855 616 853 612 853 608 851 600 849 594 847 584 845 578 841 570 839 562 835 556 833 550 831 546 829 542 827 536 827 534 823 530 823 528 821 526 819 522 819 520 817 516 817 514 815 512 813 510 813 508 817 506 819 504 821 502 823 500 827 498 831 494 833 492 837 488 839 484 841 482 843 480 847 478 853 474 857 470 861 468 867 464 867 462 869 460 871 460 873 458 875 456 877 458 879 458 879 460 875 464 871 470 867 472 861 478 855 482 849 486 843 490 837 492 833 494 829 496 825 500 821 502 817 506 813 510 811 510 809 512 815 512 823 508 833 504 839 500 845 496 849 490 853 488 857 488 859 484 863 480 867 476 869 474 873 470 873 468 875 468 877 466 877 464 879 462 881 460 881 456 881 452 881 450 879 448 877 446 875 446 871 444 867 440 861 438 857 436 855 434 851 432 845 430 841 428 839 424 837 422 833 422 831 420 829 418 827 416 823 416 823 414 819 412 819 414 821 414 823 416 827 418 831 422 835 424 841 428 845 428 847 432 849 430 851 432 853 436 857 438 859 440 863 442 865 444 867 444 867 446 869 446 869 448 871 448 869 446 867 442 861 436 853 430 847 426 837 422 831 418 829 416 827 414 825 414 827 414 827 412 829 410 833 406 837 404 841 398 843 394 847 388 851 384 855 376 857 372 859 368 861 366 863 366 863 364 865 360 867 358 867 356 867 354 869 354 869 352 869 350 867 350 863 350 859 350 853 350 847 352 841 352 835 354 829 356 823 358 819 360 815 362 809 364 807 366 803 366 801 368 795 368 791 370 785 372 779 374 775 374 773 376 771 376 769 378 767 378 765 378 763 378 763 374 761 372 757 368 755 364 751 360 747 358 745 356 743 354 743 352 741 352 739 352 737 352 739 352 741 354 741 356 743 358 745 358 745 360 747 362 749 366 749 368 751 370 753 370 753 372 755 374 757 374 755 370 753 368 751 364 749 362 747 360 745 356 743 354 741 350 737 348 733 344 731 340 727 336 723 332 721 330 717 328 715 328 711 326 707 324 705 322 699 320 695 318 691 316 687 316 685 314 681 314 679 312 677 312 675 312 673 310 669 308 667 308 665 308 663 306 661 306 659 306 659 304 659 306 659 304 657 300 655 296 655 294 653 294 653 292 653 290 653 288 653 286 651 286 647 292 643 298 637 302 633 308 629 312 625 316 621 320 619 324 615 326 613 330 611 330 611 332 609 332 611 332 613 330 615 326 617 324 621 320 623 318 625 316 627 312 629 310 633 304 635 300 637 296 641 292 643 288 643 286 645 284 647 280 647 278 649 274 651 272 651 268 651 266 653 262 653 258 655 256 655 252 655 250 655 248 657 248 657 246 657 244 657 242 657 246 655 254 653 260 651 266 649 272 645 278 643 282 641 286 637 292 635 294 631 300 627 304 623 310 619 314 617 318 613 320 611 324 609 326 607 328 605 330 603 330 607 328 611 326 615 322 619 318 623 314 625 310 629 306 633 302 637 296 639 292 641 288 643 286 645 286 645 284 645 286 645 284 645 286 645 290 647 294 649 298 651 300 651 304 653 304 655 308 655 310 655 312 657 312 657 310 659 310 661 312 667 314 669 314 673 314 677 316 679 316 681 318 683 318 687 320 689 322 691 322 693 324 695 324 695 322 699 318 701 312 703 302 705 296 707 288 707 282 709 276 709 272 709 270 709 268 709 266 711 266 711 264 711 262 713 260 713 258 713 266 711 276 711 282 711 288 709 294 709 296 709 298 709 300 709 302 709 304 711 304 717 298 721 294 725 290 729 286 731 284 731 282 733 280 735 278 737 280 741 286 743 292 747 298 749 304 753 308 753 310 755 312 757 312 759 310 763 302 767 292 771 282 773 274 775 268 775 264 775 262 775 266 777 272 777 278 777 286 779 298 781 306 781 312 781 314 781 316 781 314 783 310 783 304 783 302 783 300 783 298 783 296 783 292 785 292 787 292 789 290 793 290 797 288 803 286 805 284 809 282 813 280 815 280 815 278 815 276 817 272 817 266 817 264 817 266 817 270 819 278 819 286 819 294 819 300 821 306 821 310 821 306 821 300 821 292 821 286 821 280 821 276 819 272 819 266 819 264 819 262 819 264 821 268 823 270 827 272 831 276 835 278 839 282 843 286 845 288 847 288 851 284 857 276 861 272 865 266 867 262 869 260 869 262 867 264 863 270 859 276 857 278 855 280 855 282 853 282 851 284 849 286 847 288 847 290 847 294 847 296 847 302 847 306 845 310 845 312 845 314 845 312 845 310 845 306 845 302 847 300 847 298 847 296 847 294 847 292 849 290 849 288 851 286 853 286 853 284 853 282 855 280 857 278 857 276 859 274 861 272 861 270 863 268 865 266 865 264 867 264 869 262 871 262 873 266 873 268 875 270 877 274 879 278 881 274 883 274 883 272 885 270 887 270 887 268 889 268 891 266 893 266 897 264 901 264 903 264 905 262 907 262 909 264 911 264 911 266 913 268 915 268 915 270 915 272 915 276 915 278 915 280 913 282 913 284 911 286 909 288 909 290 907 290 905 292 905 294 903 296 901 296 899 300 897 302 897 304 897 308 897 310 897 312 897 314 899 314 901 314 903 314 903 312 905 310 905 306 905 304 905 302 905 300 903 300 901 300 897 302 895 304 893 306 893 308 893 310 893 312 893 314 893 316 895 318 897 318 899 318 901 318 901 316 903 316 905 314 905 310 907 310 907 306 907 302 905 302 903 302 901 304 899 306 897 310 897 312 897 316 897 318 899 318 901 318 903 318 905 316 905 314 905 312 905 310 907 310 907 308 907 306">
</path>
</svg>